<svg width="49" height="48" viewBox="0 0 49 48" fill="none" xmlns="http://www.w3.org/2000/svg">
<path d="M37.7245 6.41869C36.8512 5.74241 35.595 5.90214 34.9187 6.77547C34.2424 7.6488 34.4021 8.90502 35.2755 9.58131L37.7245 6.41869ZM42.3436 15.079L40.5566 15.9772L42.3436 15.079ZM44.4987 23.9147L46.4985 23.8917V23.8917L44.4987 23.9147ZM42.5477 32.7952L44.3547 33.6524L42.5477 32.7952ZM35.6091 38.4464C34.7511 39.142 34.6194 40.4014 35.315 41.2595C36.0106 42.1175 37.27 42.2492 38.1281 41.5536L35.6091 38.4464ZM31.4139 30.4508C30.5583 31.1493 30.4309 32.4092 31.1295 33.2649C31.8281 34.1205 33.088 34.2478 33.9436 33.5492L31.4139 30.4508ZM36.4994 23.9599L38.4993 23.9376V23.9376L36.4994 23.9599ZM33.7317 14.4243C32.8615 13.744 31.6045 13.898 30.9243 14.7683C30.244 15.6385 30.398 16.8955 31.2683 17.5757L33.7317 14.4243ZM13.7245 9.58131C14.5979 8.90502 14.7576 7.6488 14.0813 6.77547C13.405 5.90214 12.1488 5.74241 11.2755 6.41869L13.7245 9.58131ZM6.65639 15.079L8.44339 15.9772L6.65639 15.079ZM4.50133 23.9147L2.50146 23.8917V23.8917L4.50133 23.9147ZM6.45233 32.7952L4.64532 33.6524H4.64532L6.45233 32.7952ZM10.8719 41.5536C11.73 42.2492 12.9894 42.1175 13.685 41.2595C14.3806 40.4014 14.2489 39.142 13.3909 38.4464L10.8719 41.5536ZM15.0564 33.5492C15.912 34.2478 17.1719 34.1205 17.8705 33.2649C18.5691 32.4092 18.4417 31.1493 17.5861 30.4508L15.0564 33.5492ZM12.5006 23.9599L10.5007 23.9376V23.9376L12.5006 23.9599ZM17.7317 17.5757C18.602 16.8955 18.756 15.6385 18.0757 14.7683C17.3955 13.898 16.1385 13.744 15.2683 14.4243L17.7317 17.5757ZM22.5 40C22.5 41.1046 23.3954 42 24.5 42C25.6046 42 26.5 41.1046 26.5 40H22.5ZM30.5 24C30.5 20.6863 27.8137 18 24.5 18V22C25.6046 22 26.5 22.8954 26.5 24H30.5ZM24.5 18C21.1863 18 18.5 20.6863 18.5 24H22.5C22.5 22.8954 23.3954 22 24.5 22V18ZM18.5 24C18.5 27.3137 21.1863 30 24.5 30V26C23.3954 26 22.5 25.1046 22.5 24H18.5ZM24.5 30C27.8137 30 30.5 27.3137 30.5 24H26.5C26.5 25.1046 25.6046 26 24.5 26V30ZM35.2755 9.58131C37.5059 11.3085 39.3087 13.4943 40.5566 15.9772L44.1306 14.1809C42.6113 11.158 40.4217 8.50732 37.7245 6.41869L35.2755 9.58131ZM40.5566 15.9772C41.8044 18.4598 42.467 21.179 42.4988 23.9377L46.4985 23.8917C46.4597 20.5214 45.65 17.204 44.1306 14.1809L40.5566 15.9772ZM42.4988 23.9377C42.5306 26.6964 41.9307 29.4292 40.7407 31.938L44.3547 33.6524C45.8042 30.5965 46.5374 27.2619 46.4985 23.8917L42.4988 23.9377ZM40.7407 31.938C39.5505 34.4471 37.7988 36.6713 35.6091 38.4464L38.1281 41.5536C40.7769 39.4063 42.9052 36.708 44.3547 33.6524L40.7407 31.938ZM33.9436 33.5492C35.3818 32.3751 36.5396 30.9071 37.3293 29.2453L33.7164 27.5285C33.1857 28.6454 32.4017 29.6443 31.4139 30.4508L33.9436 33.5492ZM37.3293 29.2453C38.1191 27.5832 38.5197 25.7709 38.4993 23.9376L34.4995 23.9823C34.5131 25.2017 34.247 26.412 33.7164 27.5285L37.3293 29.2453ZM38.4993 23.9376C38.4788 22.1044 38.0378 20.3011 37.2113 18.6561L33.6371 20.4519C34.1928 21.5579 34.4859 22.7628 34.4995 23.9823L38.4993 23.9376ZM37.2113 18.6561C36.385 17.0115 35.1951 15.5682 33.7317 14.4243L31.2683 17.5757C32.2745 18.3623 33.0812 19.3455 33.6371 20.4519L37.2113 18.6561ZM11.2755 6.41869C8.57831 8.50732 6.38868 11.158 4.8694 14.1809L8.44339 15.9772C9.69127 13.4943 11.4941 11.3085 13.7245 9.58131L11.2755 6.41869ZM4.8694 14.1809C3.35001 17.204 2.54029 20.5214 2.50146 23.8917L6.5012 23.9377C6.53298 21.179 7.19562 18.4598 8.44339 15.9772L4.8694 14.1809ZM2.50146 23.8917C2.46265 27.2619 3.19575 30.5965 4.64532 33.6524L8.25934 31.938C7.06926 29.4292 6.46942 26.6964 6.5012 23.9377L2.50146 23.8917ZM4.64532 33.6524C6.09479 36.708 8.22313 39.4063 10.8719 41.5536L13.3909 38.4464C11.2012 36.6713 9.44952 34.4471 8.25934 31.938L4.64532 33.6524ZM17.5861 30.4508C16.5983 29.6443 15.8143 28.6454 15.2836 27.5285L11.6707 29.2453C12.4604 30.9071 13.6182 32.3751 15.0564 33.5492L17.5861 30.4508ZM15.2836 27.5285C14.753 26.412 14.4869 25.2017 14.5005 23.9823L10.5007 23.9376C10.4803 25.7709 10.8809 27.5832 11.6707 29.2453L15.2836 27.5285ZM14.5005 23.9823C14.5141 22.7628 14.8072 21.5579 15.3629 20.4519L11.7887 18.6561C10.9622 20.3011 10.5212 22.1044 10.5007 23.9376L14.5005 23.9823ZM15.3629 20.4519C15.9188 19.3455 16.7255 18.3623 17.7317 17.5757L15.2683 14.4243C13.8049 15.5682 12.615 17.0115 11.7887 18.6561L15.3629 20.4519ZM22.5 28V40H26.5V28H22.5Z" fill="#FF3E2D"/>
<path d="M37.7245 6.41869C36.8512 5.74241 35.595 5.90214 34.9187 6.77547C34.2424 7.6488 34.4021 8.90502 35.2755 9.58131L37.7245 6.41869ZM42.3436 15.079L40.5566 15.9772L42.3436 15.079ZM44.4987 23.9147L46.4985 23.8917V23.8917L44.4987 23.9147ZM42.5477 32.7952L44.3547 33.6524L42.5477 32.7952ZM35.6091 38.4464C34.7511 39.142 34.6194 40.4014 35.315 41.2595C36.0106 42.1175 37.27 42.2492 38.1281 41.5536L35.6091 38.4464ZM31.4139 30.4508C30.5583 31.1493 30.4309 32.4092 31.1295 33.2649C31.8281 34.1205 33.088 34.2478 33.9436 33.5492L31.4139 30.4508ZM36.4994 23.9599L38.4993 23.9376V23.9376L36.4994 23.9599ZM33.7317 14.4243C32.8615 13.744 31.6045 13.898 30.9243 14.7683C30.244 15.6385 30.398 16.8955 31.2683 17.5757L33.7317 14.4243ZM13.7245 9.58131C14.5979 8.90502 14.7576 7.6488 14.0813 6.77547C13.405 5.90214 12.1488 5.74241 11.2755 6.41869L13.7245 9.58131ZM6.65639 15.079L8.44339 15.9772L6.65639 15.079ZM4.50133 23.9147L2.50146 23.8917V23.8917L4.50133 23.9147ZM6.45233 32.7952L4.64532 33.6524H4.64532L6.45233 32.7952ZM10.8719 41.5536C11.73 42.2492 12.9894 42.1175 13.685 41.2595C14.3806 40.4014 14.2489 39.142 13.3909 38.4464L10.8719 41.5536ZM15.0564 33.5492C15.912 34.2478 17.1719 34.1205 17.8705 33.2649C18.5691 32.4092 18.4417 31.1493 17.5861 30.4508L15.0564 33.5492ZM12.5006 23.9599L10.5007 23.9376V23.9376L12.5006 23.9599ZM17.7317 17.5757C18.602 16.8955 18.756 15.6385 18.0757 14.7683C17.3955 13.898 16.1385 13.744 15.2683 14.4243L17.7317 17.5757ZM22.5 40C22.5 41.1046 23.3954 42 24.5 42C25.6046 42 26.5 41.1046 26.5 40H22.5ZM30.5 24C30.5 20.6863 27.8137 18 24.5 18V22C25.6046 22 26.5 22.8954 26.5 24H30.5ZM24.5 18C21.1863 18 18.5 20.6863 18.5 24H22.5C22.5 22.8954 23.3954 22 24.5 22V18ZM18.5 24C18.5 27.3137 21.1863 30 24.5 30V26C23.3954 26 22.5 25.1046 22.5 24H18.5ZM24.5 30C27.8137 30 30.5 27.3137 30.5 24H26.5C26.5 25.1046 25.6046 26 24.5 26V30ZM35.2755 9.58131C37.5059 11.3085 39.3087 13.4943 40.5566 15.9772L44.1306 14.1809C42.6113 11.158 40.4217 8.50732 37.7245 6.41869L35.2755 9.58131ZM40.5566 15.9772C41.8044 18.4598 42.467 21.179 42.4988 23.9377L46.4985 23.8917C46.4597 20.5214 45.65 17.204 44.1306 14.1809L40.5566 15.9772ZM42.4988 23.9377C42.5306 26.6964 41.9307 29.4292 40.7407 31.938L44.3547 33.6524C45.8042 30.5965 46.5374 27.2619 46.4985 23.8917L42.4988 23.9377ZM40.7407 31.938C39.5505 34.4471 37.7988 36.6713 35.6091 38.4464L38.1281 41.5536C40.7769 39.4063 42.9052 36.708 44.3547 33.6524L40.7407 31.938ZM33.9436 33.5492C35.3818 32.3751 36.5396 30.9071 37.3293 29.2453L33.7164 27.5285C33.1857 28.6454 32.4017 29.6443 31.4139 30.4508L33.9436 33.5492ZM37.3293 29.2453C38.1191 27.5832 38.5197 25.7709 38.4993 23.9376L34.4995 23.9823C34.5131 25.2017 34.247 26.412 33.7164 27.5285L37.3293 29.2453ZM38.4993 23.9376C38.4788 22.1044 38.0378 20.3011 37.2113 18.6561L33.6371 20.4519C34.1928 21.5579 34.4859 22.7628 34.4995 23.9823L38.4993 23.9376ZM37.2113 18.6561C36.385 17.0115 35.1951 15.5682 33.7317 14.4243L31.2683 17.5757C32.2745 18.3623 33.0812 19.3455 33.6371 20.4519L37.2113 18.6561ZM11.2755 6.41869C8.57831 8.50732 6.38868 11.158 4.8694 14.1809L8.44339 15.9772C9.69127 13.4943 11.4941 11.3085 13.7245 9.58131L11.2755 6.41869ZM4.8694 14.1809C3.35001 17.204 2.54029 20.5214 2.50146 23.8917L6.5012 23.9377C6.53298 21.179 7.19562 18.4598 8.44339 15.9772L4.8694 14.1809ZM2.50146 23.8917C2.46265 27.2619 3.19575 30.5965 4.64532 33.6524L8.25934 31.938C7.06926 29.4292 6.46942 26.6964 6.5012 23.9377L2.50146 23.8917ZM4.64532 33.6524C6.09479 36.708 8.22313 39.4063 10.8719 41.5536L13.3909 38.4464C11.2012 36.6713 9.44952 34.4471 8.25934 31.938L4.64532 33.6524ZM17.5861 30.4508C16.5983 29.6443 15.8143 28.6454 15.2836 27.5285L11.6707 29.2453C12.4604 30.9071 13.6182 32.3751 15.0564 33.5492L17.5861 30.4508ZM15.2836 27.5285C14.753 26.412 14.4869 25.2017 14.5005 23.9823L10.5007 23.9376C10.4803 25.7709 10.8809 27.5832 11.6707 29.2453L15.2836 27.5285ZM14.5005 23.9823C14.5141 22.7628 14.8072 21.5579 15.3629 20.4519L11.7887 18.6561C10.9622 20.3011 10.5212 22.1044 10.5007 23.9376L14.5005 23.9823ZM15.3629 20.4519C15.9188 19.3455 16.7255 18.3623 17.7317 17.5757L15.2683 14.4243C13.8049 15.5682 12.615 17.0115 11.7887 18.6561L15.3629 20.4519ZM22.5 28V40H26.5V28H22.5Z" fill="black" fill-opacity="0.2"/>
</svg>
