<svg width="158" height="42" viewBox="0 0 158 42" fill="none" xmlns="http://www.w3.org/2000/svg">
<g clip-path="url(#clip0_1338_2062)">
<path fill-rule="evenodd" clip-rule="evenodd" d="M65.5793 9.98303C67.2666 10.1769 69.1788 10.2738 71.2679 10.1284C72.9873 10.0153 74.6103 9.74072 76.1047 9.40149C77.8884 8.98149 78.483 6.71995 77.1332 5.4761C76.9564 5.31457 76.7797 5.15303 76.6029 5.00764C67.813 -2.52005 54.62 -1.43774 47.1478 7.39841L45.0587 9.8538L40.8486 14.8292L29.4393 28.3176L21.1797 38.123C19.8459 39.6899 21.0993 42.113 23.1401 41.8869C28.2663 41.3376 33.1996 38.8661 36.8152 34.6176L39.9326 30.9184L43.0983 27.1707L54.5075 13.6823C57.3036 10.3546 61.6262 9.06226 65.5793 9.98303ZM36.7991 7.38226C36.076 6.54226 35.2886 5.73456 34.4208 4.99149C25.6309 -2.52005 12.4379 -1.43774 4.98176 7.39841C-2.49049 16.2346 -1.41385 29.4969 7.37609 36.9923C8.24384 37.7353 9.15979 38.3976 10.0918 38.963C11.988 40.1261 14.4627 39.7061 15.9089 37.9938L16.2624 37.5738C18.0783 35.4253 17.548 32.1461 15.1376 30.6923C14.6073 30.3692 14.1092 30.0138 13.6271 29.5938C8.85447 25.5069 8.30812 18.2699 12.4701 13.5046C16.4553 8.94918 23.3972 8.38379 28.0413 12.2284C28.5716 12.6646 29.0537 13.1492 29.4875 13.6661C31.3194 15.8307 34.6297 15.863 36.4616 13.6984L36.8152 13.2784C38.2293 11.5984 38.2453 9.07841 36.7991 7.38226ZM77.792 12.4707C80.2988 11.9538 82.7735 13.5207 83.3681 16.0246C84.8947 22.3407 83.4806 29.2707 78.9812 34.5853C71.5089 43.4376 58.332 44.52 49.5421 37.0084C48.7386 36.3299 47.9994 35.5869 47.3245 34.8115C45.7819 33.0346 45.7497 30.3853 47.2602 28.5923L47.3888 28.4469C49.2689 26.2176 52.6756 26.25 54.5879 28.4469C54.9414 28.8669 55.3431 29.2546 55.777 29.6261C60.646 33.7938 68.0058 33.0507 71.9749 27.9138C74.1121 25.1353 74.771 21.5815 73.9997 18.3507C73.3729 15.7015 75.012 13.0523 77.6635 12.503C77.7117 12.503 77.7438 12.4869 77.792 12.4707Z" fill="#4D5155"/>
</g>
<path d="M105.108 17.0553C104.672 17.1644 104.119 17.2578 103.449 17.3357C102.78 17.4136 102.149 17.4526 101.557 17.4526C99.7974 17.4526 98.497 17.2111 97.6561 16.7281C96.8307 16.2296 96.2778 15.4194 95.9975 14.2976C95.7328 13.1759 95.6004 11.4854 95.6004 9.2263C95.6004 6.99834 95.7406 5.32348 96.0209 4.20171C96.3012 3.06437 96.854 2.24641 97.6794 1.74785C98.5204 1.24928 99.8129 1 101.557 1C102.164 1 102.787 1.03895 103.426 1.11685C104.08 1.19475 104.617 1.29602 105.038 1.42066V4.22508C103.714 4.08486 102.834 4.01475 102.398 4.01475C101.339 4.01475 100.607 4.12381 100.202 4.34193C99.8129 4.54448 99.5638 4.97293 99.4548 5.62729C99.3457 6.26608 99.2912 7.46575 99.2912 9.2263C99.2912 10.9869 99.3457 12.1943 99.4548 12.8487C99.5638 13.4875 99.8129 13.9159 100.202 14.134C100.607 14.3366 101.339 14.4378 102.398 14.4378C103.301 14.4378 104.205 14.3677 105.108 14.2275V17.0553Z" fill="#4D5155"/>
<path d="M110.603 17.2656V11.7269L105.978 1.18696H109.715L112.402 8.03442H112.588L115.205 1.18696H118.849L114.247 11.7269V17.2656H110.603Z" fill="#4D5155"/>
<path d="M120.384 1.18696H127.228C128.661 1.18696 129.728 1.52193 130.428 2.19188C131.145 2.86182 131.503 3.87453 131.503 5.23C131.503 6.36735 131.301 7.23205 130.896 7.82409C130.491 8.41613 129.86 8.81343 129.004 9.01597V9.10945C129.938 9.32757 130.608 9.72486 131.012 10.3013C131.433 10.8778 131.643 11.7736 131.643 12.9889C131.643 14.3911 131.301 15.4583 130.615 16.1906C129.93 16.9073 128.801 17.2656 127.228 17.2656H120.384V1.18696ZM126.06 7.6605C126.559 7.6605 126.932 7.61376 127.181 7.52028C127.431 7.4268 127.602 7.26321 127.695 7.0295C127.789 6.78022 127.836 6.41409 127.836 5.93111C127.836 5.41696 127.789 5.04304 127.695 4.80934C127.617 4.57564 127.454 4.41983 127.205 4.34193C126.971 4.24845 126.59 4.20171 126.06 4.20171H123.981V7.6605H126.06ZM126.154 14.2509C126.683 14.2509 127.065 14.2041 127.298 14.1107C127.547 14.0172 127.719 13.8536 127.812 13.6199C127.906 13.3706 127.952 12.9811 127.952 12.4514C127.952 11.9217 127.906 11.5322 127.812 11.2829C127.719 11.0336 127.547 10.8622 127.298 10.7687C127.049 10.6752 126.668 10.6285 126.154 10.6285H123.981V14.2509H126.154Z" fill="#4D5155"/>
<path d="M134.117 17.2656V1.18696H143.788V4.20171H137.737V7.63713H142.923V10.6519H137.737V14.2509H143.788V17.2656H134.117Z" fill="#4D5155"/>
<path d="M154.192 17.2656L152.324 11.6334H149.988V17.2656H146.367V1.18696H152.978C154.301 1.18696 155.298 1.3895 155.968 1.79459C156.637 2.18409 157.081 2.74497 157.299 3.47724C157.533 4.2095 157.65 5.18326 157.65 6.39851C157.65 7.53586 157.525 8.50961 157.276 9.31978C157.027 10.1144 156.521 10.6986 155.757 11.0725L158 17.2656H154.192ZM151.81 8.64205C152.495 8.64205 152.978 8.58751 153.258 8.47845C153.554 8.36939 153.749 8.17464 153.842 7.8942C153.935 7.59818 153.982 7.1074 153.982 6.42188C153.982 5.72077 153.935 5.23 153.842 4.94956C153.764 4.65354 153.577 4.45879 153.281 4.3653C153.001 4.25624 152.518 4.20171 151.833 4.20171H149.988V8.64205H151.81Z" fill="#4D5155"/>
<path d="M96.165 24.4526H102.682C103.975 24.4526 104.948 24.663 105.602 25.0836C106.256 25.4887 106.692 26.073 106.91 26.8364C107.144 27.5998 107.261 28.6203 107.261 29.8979C107.261 31.1131 107.152 32.1025 106.934 32.8659C106.731 33.6293 106.295 34.2369 105.626 34.6888C104.956 35.1406 103.967 35.3665 102.659 35.3665H99.7858V40.5313H96.165V24.4526ZM101.421 32.3518C102.106 32.3518 102.597 32.2972 102.893 32.1882C103.189 32.0635 103.383 31.8454 103.477 31.5338C103.57 31.2066 103.617 30.6613 103.617 29.8979C103.617 29.1345 103.57 28.5969 103.477 28.2853C103.383 27.9582 103.189 27.74 102.893 27.631C102.597 27.5219 102.106 27.4674 101.421 27.4674H99.7858V32.3518H101.421Z" fill="#4D5155"/>
<path d="M117.333 40.5313L116.515 37.3062H111.773L111.002 40.5313H107.358L111.656 24.4526H116.749L121.023 40.5313H117.333ZM114.202 27.7245H114.062L112.497 34.3148H115.791L114.202 27.7245Z" fill="#4D5155"/>
<path d="M130.544 40.5313L128.675 34.8991H126.339V40.5313H122.718V24.4526H129.329C130.653 24.4526 131.65 24.6552 132.319 25.0603C132.989 25.4498 133.433 26.0106 133.651 26.7429C133.884 27.4752 134.001 28.4489 134.001 29.6642C134.001 30.8015 133.877 31.7753 133.627 32.5855C133.378 33.38 132.872 33.9643 132.109 34.3382L134.352 40.5313H130.544ZM128.161 31.9077C128.846 31.9077 129.329 31.8532 129.61 31.7441C129.905 31.6351 130.1 31.4403 130.194 31.1599C130.287 30.8639 130.334 30.3731 130.334 29.6876C130.334 28.9865 130.287 28.4957 130.194 28.2152C130.116 27.9192 129.929 27.7245 129.633 27.631C129.353 27.5219 128.87 27.4674 128.185 27.4674H126.339V31.9077H128.161Z" fill="#4D5155"/>
<path d="M144.742 40.5313L141.145 33.8942H140.163V40.5313H136.543V24.4526H140.163V30.8327H141.145L144.812 24.4526H148.713L144.041 32.1181L148.76 40.5313H144.742Z" fill="#4D5155"/>
<defs>
<clipPath id="clip0_1338_2062">
<rect width="83.9624" height="42" fill="white"/>
</clipPath>
</defs>
</svg>
