<svg width="48" height="48" viewBox="0 0 48 48" fill="none" xmlns="http://www.w3.org/2000/svg">
<path d="M31.1834 34.0665H40C42.2091 34.0665 44 32.0906 44 29.6532V17.1409C44 15.4692 43.144 13.9411 41.7889 13.1935L37.6892 10.9318C36.5783 10.319 35.3534 10 34.1115 10H29.845C27.4147 10 25.1162 11.2189 23.598 13.3127L23.5478 13.3819M23.5478 13.3819L19.669 18.7314C18.7189 20.0418 18.8137 21.931 19.8892 23.1177C21.055 24.4039 22.945 24.4039 24.1108 23.1177L26.9412 19.9948L31.5229 29.2626C32.7764 31.7982 31.5211 34.9569 28.9815 35.6574L21.9218 37.6047C19.3775 38.3065 16.6949 38.0693 14.2843 36.9295L6.42432 33.2128C4.95359 32.5174 4 30.9218 4 29.1564V17.1409C4 15.4692 4.85601 13.9411 6.21114 13.1935L10.3108 10.9318C11.4217 10.319 12.6466 10 13.8885 10H17.2509C19.7328 10 22.0467 11.2681 23.5478 13.3819Z" stroke="#FF3E2D" stroke-width="4" stroke-linecap="round" stroke-linejoin="round"/>
</svg>
