<svg width="96" height="29" viewBox="0 0 96 29" fill="none" xmlns="http://www.w3.org/2000/svg">
<g clip-path="url(#clip0_1338_2026)">
<path d="M1.48633 9.59766H4.70636C5.31621 9.59766 5.90109 9.84502 6.33232 10.2853C6.76355 10.7256 7.00581 11.3228 7.00581 11.9455V27.4279H3.78577C3.17592 27.4279 2.59105 27.1805 2.15982 26.7402C1.72859 26.2999 1.48633 25.7027 1.48633 25.0801V9.59766Z" fill="#4D5155"/>
<path d="M10.1406 9.59876H13.535C14.0997 9.59876 14.6413 9.82779 15.0406 10.2355C15.4398 10.6432 15.6642 11.1961 15.6642 11.7727C16.2781 11.0475 17.0025 10.4281 17.8095 9.9383C18.7985 9.37257 19.921 9.09606 21.0539 9.13913C22.2645 9.10272 23.4623 9.40026 24.5213 10.0004C25.463 10.5528 26.2032 11.4031 26.6301 12.4228C26.9434 12.0027 27.2806 11.6017 27.6399 11.2219C28.432 10.3855 29.4204 9.76972 30.5112 9.43312C31.1689 9.2331 31.8527 9.13675 32.5389 9.14741C34.4044 9.14741 35.8779 9.67467 36.9594 10.7292C38.0408 11.7837 38.5816 13.2123 38.5816 15.0149V27.4373H33.0377V16.9155C33.0644 16.5017 33.0104 16.0866 32.8788 15.6942C32.7473 15.3019 32.5408 14.9401 32.2713 14.6298C31.9987 14.3576 31.6738 14.146 31.3171 14.0084C30.9604 13.8709 30.5797 13.8103 30.1989 13.8306C29.7804 13.8255 29.366 13.9149 28.9853 14.0924C28.6046 14.2699 28.267 14.5312 27.9968 14.8576C27.402 15.5449 27.1033 16.5484 27.1006 17.8679V27.429H23.8562C23.2463 27.429 22.6615 27.1816 22.2302 26.7413C21.799 26.301 21.5567 25.7038 21.5567 25.0812V16.9155C21.5831 16.5021 21.5293 16.0874 21.3985 15.6951C21.2676 15.3029 21.0623 14.9409 20.7943 14.6298C20.5352 14.3694 20.2278 14.1645 19.89 14.0273C19.5522 13.89 19.1909 13.8232 18.8274 13.8306C18.3859 13.8165 17.9467 13.9028 17.5418 14.0832C16.3009 14.6547 15.6628 15.8527 15.6277 17.6774V27.429H10.1406V9.59876Z" fill="#4D5155"/>
<path d="M47.1134 19.2754V27.4286H41.5898V0H44.8342C45.4441 0 46.0289 0.24736 46.4602 0.687662C46.8914 1.12797 47.1337 1.72514 47.1337 2.34783V16.646L52.1705 9.60663H58.5133L52.0975 17.5983L59.8962 27.4286H53.4561L47.1134 19.2754Z" fill="#4D5155"/>
<path d="M77.9688 9.5978H81.4402C81.9841 9.5989 82.5055 9.82 82.8901 10.2127C83.2747 10.6054 83.4912 11.1377 83.4923 11.693C84.1093 11.0012 84.8259 10.4092 85.6173 9.93735C86.6343 9.3733 87.7826 9.10275 88.9388 9.15474C89.8294 9.14131 90.7147 9.29572 91.5505 9.61022C92.2884 9.89504 92.9618 10.3304 93.5295 10.8897C94.0812 11.4408 94.5136 12.1038 94.7989 12.8359C95.1013 13.6275 95.2527 14.4708 95.245 15.3204V27.428H92.0209C91.4111 27.428 90.8262 27.1807 90.395 26.7404C89.9637 26.3001 89.7215 25.7029 89.7215 25.0802V16.9146C89.7483 16.4994 89.6928 16.083 89.5583 15.6903C89.4238 15.2975 89.2131 14.9365 88.9388 14.6289C88.6563 14.3553 88.3221 14.1434 87.9568 14.006C87.5914 13.8686 87.2025 13.8086 86.8137 13.8297C86.3813 13.8195 85.9517 13.9024 85.5527 14.0729C85.1538 14.2434 84.7944 14.4977 84.498 14.8193C83.8789 15.4791 83.5437 16.4315 83.4923 17.6765V27.428H77.9688V9.5978Z" fill="#4D5155"/>
<path d="M6.53921 1.10516C6.23907 0.796866 5.88106 0.553607 5.48664 0.389958C5.09222 0.226309 4.66951 0.145639 4.24382 0.15278C3.81879 0.145961 3.39677 0.226795 3.00306 0.390441C2.60934 0.554088 2.25202 0.79718 1.95249 1.10516C1.63916 1.41521 1.39257 1.78855 1.22848 2.20135C1.06439 2.61416 0.986385 3.05736 0.999456 3.50268C0.988932 3.94273 1.06823 4.3802 1.23231 4.78726C1.39638 5.19432 1.64165 5.56206 1.95249 5.86707C2.25202 6.17505 2.60934 6.41814 3.00306 6.58178C3.39677 6.74543 3.81879 6.82626 4.24382 6.81945C4.66951 6.82659 5.09222 6.74592 5.48664 6.58227C5.88106 6.41862 6.23907 6.17536 6.53921 5.86707C6.84932 5.5617 7.09383 5.1938 7.2572 4.78676C7.42057 4.37972 7.49924 3.94243 7.48819 3.50268C7.50178 3.05767 7.42442 2.61465 7.26103 2.20186C7.09764 1.78907 6.85181 1.41557 6.53921 1.10516ZM5.23741 4.51303C5.10759 4.64674 4.95268 4.75233 4.78195 4.82348C4.61123 4.89462 4.4282 4.92987 4.24382 4.92711C4.06009 4.92955 3.87777 4.89414 3.70774 4.82299C3.53772 4.75185 3.3835 4.64642 3.25429 4.51303C3.12168 4.38087 3.01721 4.22219 2.94743 4.04691C2.87765 3.87164 2.84405 3.68354 2.84874 3.49439C2.84496 3.30511 2.87828 3.11695 2.94674 2.941C3.0152 2.76505 3.11743 2.60485 3.24741 2.46983C3.37739 2.3348 3.53249 2.22767 3.70361 2.15473C3.87473 2.0818 4.0584 2.04453 4.24382 2.04512C4.42993 2.04342 4.61448 2.07987 4.78654 2.15231C4.9586 2.22474 5.11467 2.3317 5.24552 2.46684C5.37636 2.60199 5.47931 2.76256 5.54828 2.93906C5.61724 3.11557 5.65082 3.3044 5.64701 3.49439C5.65118 3.68384 5.61695 3.87212 5.54646 4.04741C5.47597 4.22271 5.37075 4.38123 5.23741 4.51303Z" fill="#4D5155"/>
<path d="M67.0757 28C65.7649 28.0206 64.4637 27.7684 63.2514 27.2588C62.1607 26.7955 61.171 26.1157 60.3396 25.2588C59.5253 24.398 58.8968 23.3725 58.4944 22.2484C58.0653 21.0553 57.8509 19.7928 57.8617 18.5217C57.8514 17.2616 58.0657 16.01 58.4944 14.8282C58.9036 13.7075 59.5313 12.6834 60.3396 11.8178C61.1648 10.9441 62.1555 10.251 63.2514 9.78054C65.7081 8.78669 68.4434 8.78669 70.9 9.78054C71.9959 10.251 72.9866 10.9441 73.8118 11.8178C74.6201 12.6834 75.2479 13.7075 75.6571 14.8282C76.0857 16.01 76.3001 17.2616 76.2897 18.5217C76.3005 19.7928 76.0862 21.0553 75.6571 22.2484C75.2547 23.3725 74.6261 24.398 73.8118 25.2588C72.9823 26.1232 71.9924 26.8101 70.9 27.2795C69.6863 27.782 68.3851 28.0271 67.0757 28ZM67.0757 23.2008C67.6637 23.2133 68.2462 23.0827 68.775 22.8199C69.2441 22.5719 69.6583 22.228 69.9916 21.8095C70.3431 21.3728 70.6027 20.8667 70.754 20.323C71.0785 19.1394 71.0785 17.8875 70.754 16.7039C70.6068 16.1618 70.3529 15.656 70.0078 15.2174C69.6743 14.8002 69.2602 14.4576 68.7912 14.2112C68.2584 13.9602 67.6787 13.8302 67.0919 13.8302C66.5052 13.8302 65.9255 13.9602 65.3927 14.2112C64.9237 14.4576 64.5096 14.8002 64.1761 15.2174C63.8293 15.658 63.569 16.1627 63.4096 16.7039C63.0635 17.8844 63.0635 19.1425 63.4096 20.323C63.5682 20.8646 63.8285 21.3695 64.1761 21.8095C64.5094 22.228 64.9235 22.5719 65.3927 22.8199C65.9175 23.0763 66.4941 23.2026 67.0757 23.1884V23.2008Z" fill="#4D5155"/>
</g>
<defs>
<clipPath id="clip0_1338_2026">
<rect width="96" height="29" fill="white"/>
</clipPath>
</defs>
</svg>
