<svg xmlns="http://www.w3.org/2000/svg" width="36" height="36" fill="none"><path fill="#fff" d="M18 9.375c1.125 0 2.1.975 2.1 2.1s-.975 2.1-2.1 2.1-2.1-.975-2.1-2.1.975-2.1 2.1-2.1Zm6.15 5.925c-1.275.225-2.625.3-3.9.375-.45 0-.75.3-.75.6-.15 4.05 1.5 8.925 1.575 8.925.15.375-.075.825-.45.975-.075 0-.15.075-.225.075a.72.72 0 0 1-.675-.525c-.075-.15-.675-2.175-1.2-4.8-.15-.675-.6-.6-.675 0-.45 2.625-1.2 4.65-1.2 4.8-.3.375-.525.525-.9.525-.075 0-.15 0-.225-.075-.375-.15-.6-.6-.45-.975 0-.075 1.65-4.875 1.575-8.925 0-.3-.3-.525-.75-.6-2.325-.075-3.9-.3-4.05-.3a.879.879 0 0 1-.675-.825c.075-.45.45-.675.825-.675.075 0 6.45.75 11.925-.15.375-.075.825.225.825.6.15.525-.15.975-.6.975Z"/><path fill="#fff" d="M18 30.75c-7.05 0-12.75-5.7-12.75-12.75S10.95 5.25 18 5.25 30.75 10.95 30.75 18 25.05 30.75 18 30.75Zm0-24A11.235 11.235 0 0 0 6.75 18c0 6.225 5.025 11.25 11.25 11.25S29.25 24.225 29.25 18 24.225 6.75 18 6.75Z"/></svg>