<svg width="48" height="48" viewBox="0 0 48 48" fill="none" xmlns="http://www.w3.org/2000/svg">
<path d="M41.4878 31.4411L39.7822 30.3967V30.3967L41.4878 31.4411ZM39.5787 34.5588L41.2843 35.6033V35.6033L39.5787 34.5588ZM6.51217 16.5588L4.80654 15.5144H4.80654L6.51217 16.5588ZM8.42126 13.4411L10.1269 14.4856L8.42126 13.4411ZM13.637 12.1234L14.5932 10.3668L14.5932 10.3668L13.637 12.1234ZM7.90972 21.4765L6.9535 23.2331H6.95351L7.90972 21.4765ZM34.363 35.8765L33.4067 37.6331L33.4067 37.6331L34.363 35.8765ZM40.0902 26.5234L39.134 28.2801L40.0902 26.5234ZM8.42126 34.5589L6.71563 35.6033H6.71563L8.42126 34.5589ZM6.51216 31.4412L8.21779 30.3967H8.21779L6.51216 31.4412ZM39.5787 13.4412L41.2843 12.3967V12.3967L39.5787 13.4412ZM41.4878 16.5589L39.7822 17.6033V17.6033L41.4878 16.5589ZM40.0902 21.4766L41.0465 23.2332L40.0902 21.4766ZM34.363 12.1235L35.3192 13.8801L35.3192 13.8801L34.363 12.1235ZM7.90972 26.5235L8.86594 28.2801H8.86594L7.90972 26.5235ZM13.637 35.8765L12.6808 34.1199L12.6808 34.1199L13.637 35.8765ZM34.16 12.234L33.2038 10.4774L33.2038 10.4774L34.16 12.234ZM13.84 12.2339L12.8838 13.9905L12.8838 13.9905L13.84 12.2339ZM34.16 35.766L35.1162 34.0094L35.1162 34.0094L34.16 35.766ZM13.84 35.7661L14.7962 37.5227L14.7962 37.5227L13.84 35.7661ZM22.0909 8H25.9091V4H22.0909V8ZM25.9091 40H22.0909V44H25.9091V40ZM22.0909 40C20.9742 40 20.2727 39.1744 20.2727 38.4H16.2727C16.2727 41.602 18.9901 44 22.0909 44V40ZM27.7273 38.4C27.7273 39.1744 27.0258 40 25.9091 40V44C29.0099 44 31.7273 41.602 31.7273 38.4H27.7273ZM25.9091 8C27.0258 8 27.7273 8.82559 27.7273 9.6H31.7273C31.7273 6.39796 29.0099 4 25.9091 4V8ZM22.0909 4C18.9901 4 16.2727 6.39796 16.2727 9.6H20.2727C20.2727 8.82559 20.9742 8 22.0909 8V4ZM39.7822 30.3967L37.8731 33.5144L41.2843 35.6033L43.1934 32.4856L39.7822 30.3967ZM8.21779 17.6033L10.1269 14.4856L6.71564 12.3967L4.80654 15.5144L8.21779 17.6033ZM10.1269 14.4856C10.5985 13.7154 11.7445 13.3704 12.6808 13.8801L14.5932 10.3668C11.8771 8.8883 8.35278 9.72313 6.71564 12.3967L10.1269 14.4856ZM8.86594 19.7199C7.99204 19.2442 7.79217 18.2983 8.21779 17.6033L4.80654 15.5144C3.12343 18.263 4.17497 21.7206 6.9535 23.2331L8.86594 19.7199ZM37.8731 33.5144C37.4015 34.2845 36.2555 34.6296 35.3192 34.1199L33.4067 37.6331C36.1229 39.1117 39.6472 38.2768 41.2843 35.6033L37.8731 33.5144ZM43.1934 32.4856C44.8765 29.7369 43.825 26.2794 41.0465 24.7668L39.134 28.2801C40.0079 28.7558 40.2078 29.7016 39.7822 30.3967L43.1934 32.4856ZM10.1269 33.5144L8.21779 30.3967L4.80654 32.4856L6.71563 35.6033L10.1269 33.5144ZM37.8731 14.4856L39.7822 17.6033L43.1934 15.5144L41.2843 12.3967L37.8731 14.4856ZM39.7822 17.6033C40.2078 18.2984 40.0079 19.2442 39.134 19.7199L41.0465 23.2332C43.825 21.7206 44.8765 18.2631 43.1934 15.5144L39.7822 17.6033ZM35.3192 13.8801C36.2555 13.3704 37.4015 13.7155 37.8731 14.4856L41.2843 12.3967C39.6472 9.72316 36.1229 8.88833 33.4067 10.3669L35.3192 13.8801ZM8.21779 30.3967C7.79217 29.7017 7.99204 28.7558 8.86594 28.2801L6.9535 24.7669C4.17497 26.2794 3.12343 29.737 4.80654 32.4856L8.21779 30.3967ZM6.71563 35.6033C8.35278 38.2769 11.8771 39.1117 14.5932 37.6332L12.6808 34.1199C11.7445 34.6296 10.5985 34.2846 10.1269 33.5144L6.71563 35.6033ZM35.1162 13.9906L35.3192 13.8801L33.4067 10.3669L33.2038 10.4774L35.1162 13.9906ZM12.6808 13.88L12.8838 13.9905L14.7962 10.4773L14.5932 10.3668L12.6808 13.88ZM35.3192 34.1199L35.1162 34.0094L33.2038 37.5226L33.4067 37.6331L35.3192 34.1199ZM12.8838 34.0095L12.6808 34.1199L14.5932 37.6332L14.7962 37.5227L12.8838 34.0095ZM6.95351 23.2331C7.56108 23.5639 7.56108 24.4361 6.9535 24.7669L8.86594 28.2801C12.2569 26.4342 12.2569 21.5658 8.86594 19.7199L6.95351 23.2331ZM14.7962 37.5227C15.4618 37.1603 16.2727 37.6421 16.2727 38.4H20.2727C20.2727 34.6074 16.2148 32.1962 12.8838 34.0095L14.7962 37.5227ZM31.7273 38.4C31.7273 37.6421 32.5382 37.1603 33.2038 37.5226L35.1162 34.0094C31.7852 32.1962 27.7273 34.6074 27.7273 38.4H31.7273ZM41.0465 24.7668C40.4389 24.4361 40.4389 23.5639 41.0465 23.2332L39.134 19.7199C35.7431 21.5658 35.7431 26.4341 39.134 28.2801L41.0465 24.7668ZM12.8838 13.9905C16.2148 15.8038 20.2727 13.3926 20.2727 9.6H16.2727C16.2727 10.3579 15.4618 10.8397 14.7962 10.4773L12.8838 13.9905ZM33.2038 10.4774C32.5382 10.8397 31.7273 10.3579 31.7273 9.6H27.7273C27.7273 13.3926 31.7852 15.8038 35.1162 13.9906L33.2038 10.4774ZM28 24C28 26.2091 26.2091 28 24 28V32C28.4183 32 32 28.4183 32 24H28ZM24 28C21.7909 28 20 26.2091 20 24H16C16 28.4183 19.5817 32 24 32V28ZM20 24C20 21.7909 21.7909 20 24 20V16C19.5817 16 16 19.5817 16 24H20ZM24 20C26.2091 20 28 21.7909 28 24H32C32 19.5817 28.4183 16 24 16V20Z" fill="#FF3E2D"/>
</svg>
