<svg width="49" height="48" viewBox="0 0 49 48" fill="none" xmlns="http://www.w3.org/2000/svg">
<path d="M26 26C26 26.8284 25.3284 27.5 24.5 27.5C23.6716 27.5 23 26.8284 23 26C23 25.1716 23.6716 24.5 24.5 24.5C25.3284 24.5 26 25.1716 26 26Z" fill="#FF3E2D"/>
<path d="M26 26C26 26.8284 25.3284 27.5 24.5 27.5C23.6716 27.5 23 26.8284 23 26C23 25.1716 23.6716 24.5 24.5 24.5C25.3284 24.5 26 25.1716 26 26Z" fill="black" fill-opacity="0.2"/>
<path d="M32.9852 17.5147C30.8136 15.3431 27.8136 14 24.4999 14C21.1862 14 18.1862 15.3431 16.0146 17.5147M20.2573 21.7574C21.3431 20.6716 22.8431 20 24.4999 20C26.1568 20 27.6568 20.6716 28.7426 21.7574M14.5 42C22.035 39.3507 26.3586 39.3161 34.5 42M24.5 40V34M4.5 14L4.5 26C4.5 30.4183 8.08172 34 12.5 34L36.5 34C40.9183 34 44.5 30.4183 44.5 26V14C44.5 9.58172 40.9183 6 36.5 6L12.5 6C8.08172 6 4.5 9.58172 4.5 14Z" stroke="#FF3E2D" stroke-width="4" stroke-linecap="round" stroke-linejoin="round"/>
<path d="M32.9852 17.5147C30.8136 15.3431 27.8136 14 24.4999 14C21.1862 14 18.1862 15.3431 16.0146 17.5147M20.2573 21.7574C21.3431 20.6716 22.8431 20 24.4999 20C26.1568 20 27.6568 20.6716 28.7426 21.7574M14.5 42C22.035 39.3507 26.3586 39.3161 34.5 42M24.5 40V34M4.5 14L4.5 26C4.5 30.4183 8.08172 34 12.5 34L36.5 34C40.9183 34 44.5 30.4183 44.5 26V14C44.5 9.58172 40.9183 6 36.5 6L12.5 6C8.08172 6 4.5 9.58172 4.5 14Z" stroke="black" stroke-opacity="0.2" stroke-width="4" stroke-linecap="round" stroke-linejoin="round"/>
</svg>
