<svg width="168" height="54" viewBox="0 0 168 54" fill="none" xmlns="http://www.w3.org/2000/svg">
<path d="M135.051 44.9754V53.8313H136.899V44.9754H140.322V43.2253H131.628V44.9754H135.051ZM123.375 53.8313V43.2253H121.527V53.8313H123.375ZM111.3 51.027C111.3 51.8071 110.67 52.271 109.767 52.271C108.906 52.271 107.919 51.8493 107.331 51.0691L106.281 52.3343C106.512 52.8403 106.974 53.262 107.646 53.5572C108.318 53.8524 109.011 54 109.746 54C110.754 54 111.594 53.7259 112.266 53.1777C112.938 52.6084 113.274 51.8915 113.274 51.0059C113.274 49.9094 112.749 49.0449 112.035 48.6232C111.678 48.3913 111.3 48.1804 110.88 47.9907C109.683 47.4213 108.507 47.1051 108.507 45.9664C108.507 45.2495 109.074 44.8067 109.977 44.8067C110.691 44.8067 111.3 45.0598 111.846 45.5869L112.833 44.1953C112.161 43.4362 111.153 43.0566 109.809 43.0566C108.822 43.0566 108.024 43.3518 107.415 43.9001C106.827 44.4694 106.533 45.1441 106.533 45.9664C106.533 49.4245 111.3 48.9395 111.3 51.027ZM91.581 49.8673H92.883L95.802 53.8313H98.049L94.752 49.5088C95.277 49.319 95.76 48.9817 96.18 48.4756C96.579 47.9696 96.789 47.2948 96.789 46.4725C96.789 44.3007 95.508 43.2042 92.967 43.2042C92.883 43.2042 92.379 43.2042 91.455 43.2253C90.531 43.2464 89.985 43.2464 89.754 43.2464V53.8524H91.602V49.8673H91.581ZM92.841 44.9543C94.143 44.9543 94.794 45.4604 94.794 46.4936C94.794 47.5268 93.912 48.1383 92.778 48.1383H91.581V44.9965C92.253 44.9543 92.673 44.9543 92.841 44.9543ZM81.48 53.8313V52.0812H77.07V49.3401H80.871V47.59H77.07V44.9543H81.312V43.2042H75.201V53.8103H81.48V53.8313ZM65.121 43.2464L62.118 51.1113L58.989 43.2464H57.015L61.362 53.8735H62.769L66.99 43.2464H65.121ZM48.762 53.8313V43.2253H46.914V53.8313H48.762ZM38.661 43.2464H36.918V50.6263L31.122 43.2464H29.652V53.8524H31.395V46.5147L37.191 53.8524H38.661V43.2464ZM19.551 43.2464V49.066C19.551 51.1956 18.774 52.271 17.199 52.271C15.435 52.271 14.553 51.0059 14.553 48.9606V43.2464H12.705V49.3401C12.705 50.8372 13.104 51.9969 13.923 52.7981C14.763 53.5994 15.834 54 17.199 54C18.396 54 19.404 53.6205 20.202 52.8614C21 52.1023 21.399 50.9637 21.399 49.4456V43.2464H19.551ZM155.904 43.2464L153.3 47.6744L150.675 43.2464H148.554L152.271 49.4245V53.8524H154.119V49.4245L157.878 43.2464H155.904Z" fill="#4D5155"/>
<path d="M12.684 32.303H24.297V8.81374H37.422V32.303H71.4H78.309H83.16L85.491 27.0949H102.858L105.231 32.303H106.743H117.936H129.255V24.2273V12.1663L139.881 32.303H145.803L156.471 12.1663V32.303H168V0H152.712L143.22 18.1546L133.896 0H117.957V24.2273H113.988L102.06 0H86.436L75.159 24.2273H48.867V19.7993H70.623V11.9344H48.867V7.90707H71.064V0H37.422H0V8.81374H12.684V32.303ZM99.141 19.0191H89.04L94.038 7.90707L99.141 19.0191Z" fill="#4D5155"/>
</svg>
